<mxfile host="app.diagrams.net" modified="2022-03-30T18:40:12.560Z" agent="5.0 (X11)" etag="403Ex14_-Na2hnDT3aoJ" version="17.3.0" type="github">
  <diagram id="66MhKsm92HfvM-QHQX7i" name="Page-1">
    <mxGraphModel dx="1621" dy="788" grid="1" gridSize="10" guides="1" tooltips="1" connect="1" arrows="1" fold="1" page="1" pageScale="1" pageWidth="850" pageHeight="1100" math="0" shadow="0">
      <root>
        <mxCell id="0" />
        <mxCell id="1" parent="0" />
        <mxCell id="ehSIUehwhr6paIZZ0BVh-21" style="edgeStyle=orthogonalEdgeStyle;rounded=0;orthogonalLoop=1;jettySize=auto;html=1;exitX=0;exitY=0.5;exitDx=0;exitDy=0;entryX=0.5;entryY=0;entryDx=0;entryDy=0;" parent="1" source="ehSIUehwhr6paIZZ0BVh-1" target="ehSIUehwhr6paIZZ0BVh-2" edge="1">
          <mxGeometry relative="1" as="geometry" />
        </mxCell>
        <mxCell id="ehSIUehwhr6paIZZ0BVh-23" value="Yes" style="edgeLabel;html=1;align=center;verticalAlign=middle;resizable=0;points=[];" parent="ehSIUehwhr6paIZZ0BVh-21" vertex="1" connectable="0">
          <mxGeometry x="-0.3077" y="3" relative="1" as="geometry">
            <mxPoint as="offset" />
          </mxGeometry>
        </mxCell>
        <mxCell id="ehSIUehwhr6paIZZ0BVh-22" style="edgeStyle=orthogonalEdgeStyle;rounded=0;orthogonalLoop=1;jettySize=auto;html=1;exitX=1;exitY=0.5;exitDx=0;exitDy=0;entryX=0.5;entryY=0;entryDx=0;entryDy=0;" parent="1" source="ehSIUehwhr6paIZZ0BVh-1" target="ehSIUehwhr6paIZZ0BVh-5" edge="1">
          <mxGeometry relative="1" as="geometry" />
        </mxCell>
        <mxCell id="ehSIUehwhr6paIZZ0BVh-26" value="No" style="edgeLabel;html=1;align=center;verticalAlign=middle;resizable=0;points=[];" parent="ehSIUehwhr6paIZZ0BVh-22" vertex="1" connectable="0">
          <mxGeometry x="-0.2615" y="-1" relative="1" as="geometry">
            <mxPoint as="offset" />
          </mxGeometry>
        </mxCell>
        <mxCell id="ehSIUehwhr6paIZZ0BVh-1" value="Know Haskell?" style="rhombus;whiteSpace=wrap;html=1;fillColor=#FF9999;" parent="1" vertex="1">
          <mxGeometry x="775" y="190" width="80" height="80" as="geometry" />
        </mxCell>
        <mxCell id="ehSIUehwhr6paIZZ0BVh-27" style="edgeStyle=orthogonalEdgeStyle;rounded=0;orthogonalLoop=1;jettySize=auto;html=1;exitX=0.5;exitY=1;exitDx=0;exitDy=0;entryX=0.5;entryY=0;entryDx=0;entryDy=0;" parent="1" source="ehSIUehwhr6paIZZ0BVh-2" target="ehSIUehwhr6paIZZ0BVh-6" edge="1">
          <mxGeometry relative="1" as="geometry" />
        </mxCell>
        <mxCell id="ehSIUehwhr6paIZZ0BVh-2" value="Purely Functional Data Structures" style="rounded=1;whiteSpace=wrap;html=1;fillColor=#99CCFF;" parent="1" vertex="1">
          <mxGeometry x="635" y="290" width="140" height="40" as="geometry" />
        </mxCell>
        <mxCell id="ehSIUehwhr6paIZZ0BVh-31" style="edgeStyle=orthogonalEdgeStyle;rounded=0;orthogonalLoop=1;jettySize=auto;html=1;exitX=0.5;exitY=1;exitDx=0;exitDy=0;entryX=0.321;entryY=-0.05;entryDx=0;entryDy=0;entryPerimeter=0;" parent="1" source="ehSIUehwhr6paIZZ0BVh-4" target="ehSIUehwhr6paIZZ0BVh-2" edge="1">
          <mxGeometry relative="1" as="geometry">
            <Array as="points">
              <mxPoint x="925" y="460" />
              <mxPoint x="1070" y="460" />
              <mxPoint x="1070" y="180" />
              <mxPoint x="680" y="180" />
            </Array>
          </mxGeometry>
        </mxCell>
        <mxCell id="ehSIUehwhr6paIZZ0BVh-4" value="An Introduction to Lambda Calculus through Functional Programming " style="rounded=1;whiteSpace=wrap;html=1;fillColor=#99CCFF;" parent="1" vertex="1">
          <mxGeometry x="847.5" y="380" width="155" height="50" as="geometry" />
        </mxCell>
        <mxCell id="ehSIUehwhr6paIZZ0BVh-28" style="edgeStyle=orthogonalEdgeStyle;rounded=0;orthogonalLoop=1;jettySize=auto;html=1;exitX=0.5;exitY=1;exitDx=0;exitDy=0;entryX=0.5;entryY=0;entryDx=0;entryDy=0;" parent="1" source="ehSIUehwhr6paIZZ0BVh-5" target="ehSIUehwhr6paIZZ0BVh-4" edge="1">
          <mxGeometry relative="1" as="geometry" />
        </mxCell>
        <mxCell id="ehSIUehwhr6paIZZ0BVh-5" value="Learn You a Haskell" style="rounded=1;whiteSpace=wrap;html=1;fillColor=#99CCFF;" parent="1" vertex="1">
          <mxGeometry x="855" y="290" width="140" height="40" as="geometry" />
        </mxCell>
        <mxCell id="ehSIUehwhr6paIZZ0BVh-29" style="edgeStyle=orthogonalEdgeStyle;rounded=0;orthogonalLoop=1;jettySize=auto;html=1;exitX=0.5;exitY=1;exitDx=0;exitDy=0;entryX=0;entryY=0.5;entryDx=0;entryDy=0;" parent="1" source="ehSIUehwhr6paIZZ0BVh-6" target="ehSIUehwhr6paIZZ0BVh-7" edge="1">
          <mxGeometry relative="1" as="geometry" />
        </mxCell>
        <mxCell id="ehSIUehwhr6paIZZ0BVh-6" value="The Art Of Computer Programming" style="rounded=1;whiteSpace=wrap;html=1;fillColor=#CCFF99;" parent="1" vertex="1">
          <mxGeometry x="635" y="380" width="140" height="40" as="geometry" />
        </mxCell>
        <mxCell id="ehSIUehwhr6paIZZ0BVh-32" style="edgeStyle=orthogonalEdgeStyle;rounded=0;orthogonalLoop=1;jettySize=auto;html=1;exitX=0;exitY=0.5;exitDx=0;exitDy=0;entryX=0.557;entryY=0.025;entryDx=0;entryDy=0;entryPerimeter=0;" parent="1" source="ehSIUehwhr6paIZZ0BVh-7" target="ehSIUehwhr6paIZZ0BVh-10" edge="1">
          <mxGeometry relative="1" as="geometry" />
        </mxCell>
        <mxCell id="ehSIUehwhr6paIZZ0BVh-34" value="Yes, Opt 1" style="edgeLabel;html=1;align=center;verticalAlign=middle;resizable=0;points=[];" parent="ehSIUehwhr6paIZZ0BVh-32" vertex="1" connectable="0">
          <mxGeometry x="-0.0096" y="4" relative="1" as="geometry">
            <mxPoint as="offset" />
          </mxGeometry>
        </mxCell>
        <mxCell id="ehSIUehwhr6paIZZ0BVh-33" style="edgeStyle=orthogonalEdgeStyle;rounded=0;orthogonalLoop=1;jettySize=auto;html=1;exitX=1;exitY=0.5;exitDx=0;exitDy=0;entryX=0.5;entryY=0;entryDx=0;entryDy=0;" parent="1" source="ehSIUehwhr6paIZZ0BVh-7" target="ehSIUehwhr6paIZZ0BVh-11" edge="1">
          <mxGeometry relative="1" as="geometry" />
        </mxCell>
        <mxCell id="ehSIUehwhr6paIZZ0BVh-35" value="Yes, Opt 2" style="edgeLabel;html=1;align=center;verticalAlign=middle;resizable=0;points=[];" parent="ehSIUehwhr6paIZZ0BVh-33" vertex="1" connectable="0">
          <mxGeometry x="-0.4776" y="-4" relative="1" as="geometry">
            <mxPoint as="offset" />
          </mxGeometry>
        </mxCell>
        <mxCell id="ehSIUehwhr6paIZZ0BVh-36" style="edgeStyle=orthogonalEdgeStyle;rounded=0;orthogonalLoop=1;jettySize=auto;html=1;exitX=0.5;exitY=0;exitDx=0;exitDy=0;entryX=1;entryY=0.5;entryDx=0;entryDy=0;" parent="1" source="ehSIUehwhr6paIZZ0BVh-7" target="ehSIUehwhr6paIZZ0BVh-6" edge="1">
          <mxGeometry relative="1" as="geometry">
            <Array as="points">
              <mxPoint x="815" y="400" />
            </Array>
          </mxGeometry>
        </mxCell>
        <mxCell id="ehSIUehwhr6paIZZ0BVh-40" value="No" style="edgeLabel;html=1;align=center;verticalAlign=middle;resizable=0;points=[];" parent="ehSIUehwhr6paIZZ0BVh-36" vertex="1" connectable="0">
          <mxGeometry x="-0.1" y="2" relative="1" as="geometry">
            <mxPoint as="offset" />
          </mxGeometry>
        </mxCell>
        <mxCell id="ehSIUehwhr6paIZZ0BVh-7" value="Confident?" style="rhombus;whiteSpace=wrap;html=1;fillColor=#FF9999;" parent="1" vertex="1">
          <mxGeometry x="775" y="440" width="80" height="80" as="geometry" />
        </mxCell>
        <mxCell id="dM2A8zJfngi9Pwuqgm8M-1" value="" style="edgeStyle=orthogonalEdgeStyle;rounded=0;orthogonalLoop=1;jettySize=auto;html=1;" edge="1" parent="1" source="ehSIUehwhr6paIZZ0BVh-10" target="ehSIUehwhr6paIZZ0BVh-14">
          <mxGeometry relative="1" as="geometry" />
        </mxCell>
        <mxCell id="ehSIUehwhr6paIZZ0BVh-10" value="Software Engineering" style="rounded=1;whiteSpace=wrap;html=1;fillColor=#FFCC99;" parent="1" vertex="1">
          <mxGeometry x="550" y="540" width="140" height="40" as="geometry" />
        </mxCell>
        <mxCell id="ehSIUehwhr6paIZZ0BVh-42" style="edgeStyle=orthogonalEdgeStyle;rounded=0;orthogonalLoop=1;jettySize=auto;html=1;exitX=0;exitY=0.5;exitDx=0;exitDy=0;entryX=0.564;entryY=-0.02;entryDx=0;entryDy=0;entryPerimeter=0;" parent="1" source="ehSIUehwhr6paIZZ0BVh-11" target="ehSIUehwhr6paIZZ0BVh-12" edge="1">
          <mxGeometry relative="1" as="geometry" />
        </mxCell>
        <mxCell id="ehSIUehwhr6paIZZ0BVh-43" style="edgeStyle=orthogonalEdgeStyle;rounded=0;orthogonalLoop=1;jettySize=auto;html=1;exitX=1;exitY=0.5;exitDx=0;exitDy=0;entryX=0.5;entryY=0;entryDx=0;entryDy=0;" parent="1" source="ehSIUehwhr6paIZZ0BVh-11" target="ehSIUehwhr6paIZZ0BVh-17" edge="1">
          <mxGeometry relative="1" as="geometry" />
        </mxCell>
        <mxCell id="ehSIUehwhr6paIZZ0BVh-11" value="Computer Science" style="rounded=1;whiteSpace=wrap;html=1;fillColor=#FFCC99;" parent="1" vertex="1">
          <mxGeometry x="970" y="540" width="140" height="40" as="geometry" />
        </mxCell>
        <mxCell id="ehSIUehwhr6paIZZ0BVh-47" style="edgeStyle=orthogonalEdgeStyle;rounded=0;orthogonalLoop=1;jettySize=auto;html=1;exitX=0.5;exitY=1;exitDx=0;exitDy=0;entryX=0;entryY=0.5;entryDx=0;entryDy=0;" parent="1" source="ehSIUehwhr6paIZZ0BVh-12" target="ehSIUehwhr6paIZZ0BVh-18" edge="1">
          <mxGeometry relative="1" as="geometry" />
        </mxCell>
        <mxCell id="ehSIUehwhr6paIZZ0BVh-12" value="The Haskell Road to Logic, Math and Programming" style="rounded=1;whiteSpace=wrap;html=1;fillColor=#99CCFF;" parent="1" vertex="1">
          <mxGeometry x="832.5" y="620" width="137.5" height="50" as="geometry" />
        </mxCell>
        <mxCell id="ehSIUehwhr6paIZZ0BVh-13" value="Algebra-Driven Design" style="rounded=1;whiteSpace=wrap;html=1;fillColor=#99CCFF;" parent="1" vertex="1">
          <mxGeometry x="550" y="720" width="140" height="40" as="geometry" />
        </mxCell>
        <mxCell id="dE8sYhg9LEZOt8An-8ZS-6" style="edgeStyle=orthogonalEdgeStyle;rounded=0;orthogonalLoop=1;jettySize=auto;html=1;exitX=0.5;exitY=1;exitDx=0;exitDy=0;entryX=0.5;entryY=0;entryDx=0;entryDy=0;" parent="1" source="ehSIUehwhr6paIZZ0BVh-14" target="ehSIUehwhr6paIZZ0BVh-13" edge="1">
          <mxGeometry relative="1" as="geometry" />
        </mxCell>
        <mxCell id="ehSIUehwhr6paIZZ0BVh-14" value="Structure and Interpretation of Computer Programs" style="rounded=1;whiteSpace=wrap;html=1;fillColor=#CCFF99;" parent="1" vertex="1">
          <mxGeometry x="550" y="620" width="140" height="50" as="geometry" />
        </mxCell>
        <mxCell id="ehSIUehwhr6paIZZ0BVh-49" style="edgeStyle=orthogonalEdgeStyle;rounded=0;orthogonalLoop=1;jettySize=auto;html=1;exitX=0.5;exitY=1;exitDx=0;exitDy=0;entryX=0.5;entryY=0;entryDx=0;entryDy=0;" parent="1" source="ehSIUehwhr6paIZZ0BVh-15" target="ehSIUehwhr6paIZZ0BVh-18" edge="1">
          <mxGeometry relative="1" as="geometry" />
        </mxCell>
        <mxCell id="ehSIUehwhr6paIZZ0BVh-15" value="Parallel and Concurrent Programming in Haskell" style="rounded=1;whiteSpace=wrap;html=1;fillColor=#99CCFF;" parent="1" vertex="1">
          <mxGeometry x="970" y="700" width="140" height="40" as="geometry" />
        </mxCell>
        <mxCell id="ehSIUehwhr6paIZZ0BVh-16" value="Compilers: Principles, Techniques, and Tools" style="rounded=1;whiteSpace=wrap;html=1;fillColor=#CCFF99;" parent="1" vertex="1">
          <mxGeometry x="970" y="840" width="140" height="40" as="geometry" />
        </mxCell>
        <mxCell id="ehSIUehwhr6paIZZ0BVh-46" style="edgeStyle=orthogonalEdgeStyle;rounded=0;orthogonalLoop=1;jettySize=auto;html=1;exitX=0.5;exitY=1;exitDx=0;exitDy=0;entryX=1;entryY=0.5;entryDx=0;entryDy=0;" parent="1" source="ehSIUehwhr6paIZZ0BVh-17" target="ehSIUehwhr6paIZZ0BVh-15" edge="1">
          <mxGeometry relative="1" as="geometry" />
        </mxCell>
        <mxCell id="ehSIUehwhr6paIZZ0BVh-17" value="The Book of Monads" style="rounded=1;whiteSpace=wrap;html=1;fillColor=#99CCFF;" parent="1" vertex="1">
          <mxGeometry x="1110" y="625" width="140" height="40" as="geometry" />
        </mxCell>
        <mxCell id="ehSIUehwhr6paIZZ0BVh-50" style="edgeStyle=orthogonalEdgeStyle;rounded=0;orthogonalLoop=1;jettySize=auto;html=1;exitX=0.5;exitY=1;exitDx=0;exitDy=0;entryX=0.5;entryY=0;entryDx=0;entryDy=0;" parent="1" source="ehSIUehwhr6paIZZ0BVh-18" target="ehSIUehwhr6paIZZ0BVh-16" edge="1">
          <mxGeometry relative="1" as="geometry" />
        </mxCell>
        <mxCell id="dE8sYhg9LEZOt8An-8ZS-7" style="edgeStyle=orthogonalEdgeStyle;rounded=0;orthogonalLoop=1;jettySize=auto;html=1;exitX=0.25;exitY=1;exitDx=0;exitDy=0;entryX=0.5;entryY=1;entryDx=0;entryDy=0;" parent="1" source="ehSIUehwhr6paIZZ0BVh-18" target="ehSIUehwhr6paIZZ0BVh-13" edge="1">
          <mxGeometry relative="1" as="geometry" />
        </mxCell>
        <mxCell id="ehSIUehwhr6paIZZ0BVh-18" value="Haskell In Depth" style="rounded=1;whiteSpace=wrap;html=1;fillColor=#99CCFF;" parent="1" vertex="1">
          <mxGeometry x="970" y="770" width="140" height="40" as="geometry" />
        </mxCell>
        <mxCell id="dM2A8zJfngi9Pwuqgm8M-3" value="" style="edgeStyle=orthogonalEdgeStyle;rounded=0;orthogonalLoop=1;jettySize=auto;html=1;" edge="1" parent="1" source="dE8sYhg9LEZOt8An-8ZS-3" target="ehSIUehwhr6paIZZ0BVh-1">
          <mxGeometry relative="1" as="geometry" />
        </mxCell>
        <mxCell id="dE8sYhg9LEZOt8An-8ZS-3" value="A Discilpline of Programming" style="rounded=1;whiteSpace=wrap;html=1;fillColor=#CCFF99;" parent="1" vertex="1">
          <mxGeometry x="745" y="90" width="140" height="40" as="geometry" />
        </mxCell>
      </root>
    </mxGraphModel>
  </diagram>
</mxfile>
